<?xml version="1.0" encoding="UTF-8"?>
<svg width="1024" height="1024" viewBox="0 0 1024 1024" xmlns="http://www.w3.org/2000/svg" role="img" aria-labelledby="title desc">
  <title id="title">Cluster Quality illustration</title>
  <desc id="desc">Minimal abstract illustration showing a balanced Kubernetes cluster network with a central quality seal, representing architectural conformance and reliability.</desc>

  <!-- Palette -->
  <!-- primary: #326ce5 -->
  <!-- darker: #215dd0 -->
  <!-- lighter: #7aa0f0 -->

  <!-- Transparent background -->

  <defs>
    <filter id="softShadow" x="-50%" y="-50%" width="200%" height="200%">
      <feDropShadow dx="0" dy="10" stdDeviation="14" flood-color="#215dd0" flood-opacity="0.15"/>
    </filter>

    <!-- Hex node shape -->
    <g id="hex">
      <polygon points="0,-40 34,-20 34,20 0,40 -34,20 -34,-20" />
    </g>
  </defs>

  <!-- Outer circular orbit representing the cluster boundary -->
  <circle cx="512" cy="512" r="360" stroke="#326ce5" stroke-width="10" stroke-dasharray="12 20" fill="none"/>

  <!-- Connection lines between nodes -->
  <g stroke="#215dd0" stroke-width="10" stroke-linecap="round" fill="none">
    <line x1="512" y1="220" x2="730" y2="340" />
    <line x1="512" y1="220" x2="294" y2="340" />
    <line x1="294" y1="340" x2="340" y2="640" />
    <line x1="730" y1="340" x2="684" y2="640" />
    <line x1="340" y1="640" x2="512" y2="820" />
    <line x1="684" y1="640" x2="512" y2="820" />
  </g>

  <!-- Cluster nodes -->
  <g fill="#7aa0f0" stroke="#215dd0" stroke-width="8" filter="url(#softShadow)">
    <g transform="translate(512,220)"><use href="#hex"/></g>
    <g transform="translate(730,340)"><use href="#hex"/></g>
    <g transform="translate(294,340)"><use href="#hex"/></g>
    <g transform="translate(684,640)"><use href="#hex"/></g>
    <g transform="translate(340,640)"><use href="#hex"/></g>
    <g transform="translate(512,820)"><use href="#hex"/></g>
  </g>

  <!-- Central seal of quality -->
  <g transform="translate(512,512)" filter="url(#softShadow)">
    <!-- outer ring -->
    <circle r="110" fill="#EAF3FF" stroke="#326ce5" stroke-width="16"/>
    <!-- inner star/badge -->
    <polygon points="0,-60 18,-18 60,0 18,18 0,60 -18,18 -60,0 -18,-18" fill="#326ce5" stroke="#215dd0" stroke-width="10"/>
    <!-- checkmark symbol -->
    <path d="M-20 0 L0 20 L40 -30" fill="none" stroke="#ffffff" stroke-width="14" stroke-linecap="round" stroke-linejoin="round"/>
  </g>

  <!-- Subtle transparent frame -->
  <rect x="12" y="12" width="1000" height="1000" rx="28" fill="none" stroke="#000000" stroke-opacity="0.02" stroke-width="24"/>

</svg>
